<svg width="47" height="81" viewBox="0 0 47 81" fill="none" xmlns="http://www.w3.org/2000/svg">
<path d="M45.6756 73.7452C46.0721 74.1252 46.3826 74.5729 46.5895 75.0627C46.7964 75.5524 46.8957 76.0747 46.8816 76.5997C46.8675 77.1246 46.7403 77.642 46.5073 78.1222C46.2744 78.6025 45.9402 79.0361 45.5238 79.3985C45.1074 79.7609 44.617 80.0449 44.0806 80.2342C43.5442 80.4236 42.9723 80.5146 42.3976 80.5021C41.8228 80.4896 41.2565 80.3739 40.7309 80.1615C40.2053 79.949 39.7307 79.6441 39.3343 79.264L1.98322 43.4384C1.21188 42.6993 0.779748 41.7184 0.775549 40.697C0.77135 39.6755 1.1954 38.6911 1.96064 37.9457L39.0159 1.81016C39.4065 1.41854 39.8784 1.10165 40.4042 0.877921C40.9299 0.654189 41.499 0.52807 42.0784 0.506884C42.6578 0.485698 43.2359 0.569873 43.7792 0.754513C44.3225 0.939154 44.8202 1.22058 45.2433 1.58245C45.6663 1.94432 46.0064 2.37941 46.2437 2.86247C46.481 3.34552 46.6109 3.8669 46.6257 4.39632C46.6405 4.92573 46.54 5.45264 46.33 5.94643C46.1199 6.44022 45.8046 6.89105 45.4024 7.27273L11.172 40.6542L45.6756 73.7452Z" fill="white"/>
</svg>
