<svg width="47" height="81" viewBox="0 0 47 81" fill="none" xmlns="http://www.w3.org/2000/svg">
<path d="M1.4508 7.24411C1.05593 6.86245 0.747227 6.41349 0.542322 5.92286C0.337416 5.43223 0.240317 4.90955 0.256574 4.38465C0.272831 3.85975 0.402125 3.34291 0.63707 2.86365C0.872015 2.38439 1.20801 1.95209 1.62588 1.59142C2.04374 1.23076 2.53529 0.948808 3.07246 0.761656C3.60963 0.574504 4.1819 0.48582 4.75659 0.500668C5.33128 0.515517 5.89715 0.633607 6.42187 0.848196C6.9466 1.06278 7.41991 1.36967 7.81478 1.75133L45.0182 37.7302C45.7865 38.4725 46.2146 39.4552 46.2146 40.4766C46.2146 41.498 45.7865 42.4807 45.0182 43.223L7.81478 79.2059C7.42251 79.5959 6.94931 79.9108 6.42265 80.1324C5.896 80.354 5.32639 80.4777 4.74692 80.4966C4.16744 80.5154 3.58965 80.4288 3.04711 80.2419C2.50456 80.0551 2.00808 79.7716 1.5865 79.408C1.16491 79.0444 0.826633 78.6079 0.591305 78.1239C0.355977 77.6398 0.228293 77.1179 0.215668 76.5885C0.203043 76.059 0.305728 75.5325 0.517761 75.0396C0.729795 74.5466 1.04695 74.0971 1.4508 73.7171L35.818 40.4766L1.4508 7.24411Z" fill="white"/>
</svg>
